# xmcd CD database file
#
# Track frame offsets:
#	150
#	14470
#	27325
#	40117
#	53195
#	67180
#	77517
#	88297
#	101160
#	108482
#	118357
#	131682
#	143742
#	157380
#	169087
#	185262
#	204712
#	227199
#	254762
#
# Disc length: 3533 seconds
#
# Revision: 1
# Processed by: cddbd v1.5.1PL2 Copyright (c) Steve Scherf et al.
# Submitted via: CDex 1.50Beta5
#
DISCID=200dcb13
DTITLE=Mayall, John and the Bluesbreakers - A Hard Road
DYEAR=1967
DGENRE=Blues
TTITLE0=Hard Road
TTITLE1=It's Over
TTITLE2=You Don't Love Me
TTITLE3=Stumble
TTITLE4=Another Kinda Love
TTITLE5=Hit The Highway
TTITLE6=Leaping Christine
TTITLE7=Dust My Blues
TTITLE8=There's Always Work
TTITLE9=Same Way
TTITLE10=Supernatural
TTITLE11=Top Of The Hill
TTITLE12=Someday After A While (You'll Be Sorry)
TTITLE13=Living Alone
TTITLE14=Evil Woman Blues
TTITLE15=All My Life
TTITLE16=Ridin' On The L and N
TTITLE17=Little By Little
TTITLE18=Eagle Eye
EXTD=YEAR: 1967
EXTT0=
EXTT1=
EXTT2=
EXTT3=
EXTT4=
EXTT5=
EXTT6=
EXTT7=
EXTT8=
EXTT9=
EXTT10=
EXTT11=
EXTT12=
EXTT13=
EXTT14=
EXTT15=
EXTT16=
EXTT17=
EXTT18=
PLAYORDER=
